<svg xmlns="http://www.w3.org/2000/svg" xmlns:xlink="http://www.w3.org/1999/xlink" width="500" zoomAndPan="magnify" viewBox="0 0 375 374.999991" height="500" preserveAspectRatio="xMidYMid meet" version="1.0"><defs><clipPath id="611efe52bd"><path d="M 359 155 L 374.765625 155 L 374.765625 186 L 359 186 Z M 359 155 " clip-rule="nonzero"/></clipPath><clipPath id="5d778e8e25"><path d="M 361 69 L 374.765625 69 L 374.765625 100 L 361 100 Z M 361 69 " clip-rule="nonzero"/></clipPath><clipPath id="9c5457a02c"><path d="M 279.515625 119 L 290 119 L 290 122 L 279.515625 122 Z M 279.515625 119 " clip-rule="nonzero"/></clipPath><clipPath id="008e794ad7"><path d="M 359 165 L 374.765625 165 L 374.765625 177 L 359 177 Z M 359 165 " clip-rule="nonzero"/></clipPath><clipPath id="f6330c96b4"><path d="M 358 159 L 374.765625 159 L 374.765625 170 L 358 170 Z M 358 159 " clip-rule="nonzero"/></clipPath><clipPath id="a8ffbb59bb"><path d="M 362 69.148438 L 374.671875 69.148438 L 374.671875 82.65625 L 362 82.65625 Z M 362 69.148438 " clip-rule="nonzero"/></clipPath><clipPath id="3ea3941cf2"><path d="M 361.074219 76.652344 L 374.671875 76.652344 L 374.671875 88 L 361.074219 88 Z M 361.074219 76.652344 " clip-rule="nonzero"/></clipPath><clipPath id="a8d24f43c8"><path d="M 362 83 L 374.765625 83 L 374.765625 95 L 362 95 Z M 362 83 " clip-rule="nonzero"/></clipPath></defs><g clip-path="url(#611efe52bd)"><path fill="#ffe9e1" d="M 367.371094 185.328125 C 367.371094 185.328125 365.9375 184.265625 365.035156 183.703125 C 364.132812 183.144531 362.359375 182.082031 361.550781 180.988281 C 360.742188 179.898438 360.273438 178.867188 360.367188 177.902344 C 360.460938 176.933594 360.585938 176.996094 361.117188 176.621094 C 361.644531 176.246094 361.175781 176.089844 360.585938 174.4375 C 359.996094 172.78125 359.402344 172.5 359.871094 171.253906 C 360.339844 170.003906 360.804688 169.972656 360.304688 169.003906 C 359.808594 168.035156 359.1875 167.570312 359.1875 166.167969 C 359.1875 164.761719 359 164.230469 359.621094 163.574219 C 360.246094 162.917969 360.246094 162.917969 359.808594 162.109375 C 359.375 161.296875 359.25 160.546875 359.683594 159.390625 C 360.117188 158.238281 360.367188 157.988281 361.210938 157.582031 C 362.046875 157.175781 364.007812 156.179688 364.664062 155.832031 C 365.316406 155.492188 366.777344 155.429688 367.960938 155.242188 C 369.144531 155.054688 370.105469 155.273438 370.949219 155.898438 C 371.789062 156.523438 372.039062 156.019531 371.789062 157.644531 C 371.542969 159.269531 371.136719 159.765625 371.914062 160.421875 C 372.691406 161.078125 373.5 161.761719 373.6875 162.667969 C 373.875 163.574219 373.46875 164.105469 372.910156 164.542969 C 372.347656 164.980469 371.601562 165.414062 372.503906 166.039062 C 373.40625 166.664062 374.496094 166.632812 373.8125 167.820312 C 373.128906 169.003906 373.46875 169.128906 372.410156 169.941406 C 371.351562 170.753906 370.886719 171.441406 370.324219 172.03125 C 369.765625 172.625 369.546875 172.722656 370.605469 172.90625 C 371.664062 173.09375 372.628906 173.3125 373.003906 174.09375 C 373.375 174.871094 373.746094 174.90625 373.097656 175.871094 C 372.441406 176.839844 371.507812 178.121094 370.511719 178.492188 C 369.515625 178.867188 368.335938 179.335938 367.898438 180.023438 C 367.464844 180.707031 367.585938 181.554688 367.558594 182.457031 C 367.527344 183.363281 367.371094 185.328125 367.371094 185.328125 " fill-opacity="1" fill-rule="evenodd"/></g><g clip-path="url(#5d778e8e25)"><path fill="#ffe9e1" d="M 367.328125 69.683594 C 367.328125 69.683594 366.476562 70.070312 365.460938 70.84375 C 364.445312 71.617188 363.265625 72.289062 363.003906 73.167969 C 362.742188 74.039062 362.535156 74.695312 362.941406 75.386719 C 363.347656 76.078125 363.148438 76.832031 362.921875 77.335938 C 362.699219 77.847656 362.113281 78.640625 361.929688 79.394531 C 361.746094 80.148438 361.765625 81.144531 362.152344 81.59375 C 362.535156 82.042969 363.390625 82.714844 363.671875 83.140625 C 363.957031 83.566406 363.753906 83.914062 363.511719 84.484375 C 363.265625 85.054688 362.964844 85.542969 362.859375 86.335938 C 362.761719 87.132812 362.617188 87.3125 363.042969 88.210938 C 363.46875 89.105469 363.835938 89.757812 364.300781 90.265625 C 364.769531 90.773438 365.335938 91.140625 364.6875 91.445312 C 364.039062 91.75 363.695312 92.242188 363.371094 92.710938 C 363.042969 93.175781 362.941406 93.808594 363.265625 94.335938 C 363.589844 94.867188 364.566406 96.003906 365.050781 96.492188 C 365.539062 96.984375 366.414062 97.757812 367.410156 98.207031 C 368.402344 98.652344 369.277344 98.960938 370.414062 99.222656 C 371.550781 99.488281 372.15625 99.488281 372.746094 99.160156 C 373.335938 98.835938 373.660156 98.46875 373.132812 97.390625 C 372.605469 96.3125 371.996094 95.332031 371.710938 94.660156 C 371.425781 93.992188 371.46875 94.257812 372.238281 94.171875 C 373.007812 94.09375 373.496094 94.824219 373.597656 93.523438 C 373.703125 92.21875 374.105469 92.21875 373.296875 90.714844 C 372.484375 89.207031 372.054688 88.578125 371.8125 87.882812 C 371.566406 87.191406 371.507812 87.332031 372.34375 87.3125 C 373.171875 87.292969 373.660156 87.636719 373.921875 86.988281 C 374.1875 86.335938 374.390625 86.214844 374.027344 85.417969 C 373.660156 84.628906 372.828125 83.363281 372.34375 82.734375 C 371.851562 82.101562 371.8125 81.449219 372.300781 81.574219 C 372.785156 81.695312 373.660156 82.304688 373.902344 81.554688 C 374.148438 80.800781 374.328125 81.1875 373.839844 80.027344 C 373.351562 78.863281 372.785156 78.417969 371.894531 77.277344 C 371 76.140625 369.925781 75.261719 369.214844 74.367188 C 368.503906 73.472656 367.753906 73.652344 367.652344 72.757812 C 367.546875 71.863281 367.328125 69.683594 367.328125 69.683594 " fill-opacity="1" fill-rule="evenodd"/></g><path fill="#ffe9e1" d="M 339.734375 305.023438 C 339.734375 305.023438 340.859375 303.257812 341.089844 302.617188 C 341.316406 301.980469 342.773438 300.265625 343.359375 299.703125 C 343.945312 299.140625 345.910156 297.480469 346.828125 296.992188 C 347.746094 296.503906 349.710938 296.070312 350.984375 295.765625 C 352.257812 295.457031 354.632812 294.867188 356.164062 294.789062 C 357.691406 294.714844 360.09375 294.664062 360.09375 294.664062 C 360.09375 294.664062 361.058594 296.144531 362.058594 297.199219 C 363.050781 298.242188 367.285156 302.261719 367.285156 302.261719 C 367.285156 302.261719 367.921875 302.695312 368.664062 303.15625 C 369.402344 303.617188 370.167969 304.230469 369.9375 305.101562 C 369.707031 305.972656 369.046875 306.664062 368.609375 307.171875 C 368.175781 307.683594 367.589844 308.015625 368.890625 308.65625 C 370.191406 309.296875 371.160156 310.191406 371.570312 310.777344 C 371.976562 311.367188 372.742188 312.238281 372.207031 312.574219 C 371.667969 312.902344 370.855469 313.207031 371.367188 313.59375 C 371.878906 313.976562 372.640625 315 373 315.640625 C 373.351562 316.28125 373.125 316.789062 371.953125 317.25 C 370.777344 317.710938 369.09375 317.894531 367.691406 318.121094 C 366.289062 318.351562 365.347656 318.65625 364.988281 319.019531 C 364.632812 319.375 364.503906 320.015625 365.832031 319.9375 C 367.15625 319.863281 368.175781 319.960938 369.347656 320.320312 C 370.523438 320.679688 371.109375 321.0625 372.003906 321.753906 C 372.894531 322.445312 373.328125 322.652344 373.457031 323.1875 C 373.585938 323.722656 373.226562 324.339844 372.332031 324.621094 C 371.441406 324.902344 369.730469 325.308594 368.761719 325.539062 C 367.792969 325.769531 367.359375 324.746094 367.359375 326.382812 C 367.359375 328.019531 367.539062 331.832031 367.539062 331.832031 C 367.539062 331.832031 365.679688 331.089844 365.320312 330.988281 C 364.960938 330.882812 363.207031 329.710938 362.644531 329.199219 C 362.082031 328.6875 360.550781 327.175781 360.140625 326.152344 C 359.734375 325.128906 359.835938 324.875 359.429688 324.105469 C 359.019531 323.339844 358.253906 323.160156 357.234375 322.1875 C 356.214844 321.21875 352.820312 318.046875 351.675781 316.558594 C 351.085938 315.796875 348.152344 313.542969 346.445312 311.648438 C 344.738281 309.753906 339.734375 305.023438 339.734375 305.023438 " fill-opacity="1" fill-rule="evenodd"/><path fill="#ba736a" d="M 297.582031 111.710938 C 297.582031 107.550781 298.253906 102.453125 300.148438 97.957031 C 302.070312 93.386719 305.242188 89.421875 309.40625 86.261719 C 312.300781 84.066406 315.910156 83.011719 319.90625 82.203125 C 322.121094 81.757812 324.925781 81.066406 326.664062 81.066406 C 327.230469 81.066406 328.546875 81.191406 329.707031 80.78125 C 330.867188 80.375 333.835938 80.0625 336.453125 80.3125 C 340.550781 80.703125 344.214844 82.707031 347.804688 85.535156 C 351.945312 88.796875 355.535156 93.480469 358.09375 98.4375 C 361.03125 104.136719 362.636719 110.160156 362.636719 114.160156 C 362.636719 116.214844 362.917969 119.492188 362.035156 121.210938 C 357.347656 130.359375 340.835938 133.449219 329.214844 133.449219 C 321.242188 133.449219 310.175781 139.964844 304.257812 134.378906 C 302.027344 132.269531 299.554688 126.242188 298.347656 120.777344 C 297.542969 117.140625 297.582031 113.898438 297.582031 111.710938 " fill-opacity="1" fill-rule="evenodd"/><path fill="#ffe9e1" d="M 310.246094 132.722656 C 309.109375 131.453125 308.214844 129.792969 308.203125 127.023438 C 308.203125 125.5 308.402344 124.027344 309.234375 122.636719 C 310.753906 120.089844 309.132812 117.957031 309.957031 116.636719 C 311.621094 113.988281 312.589844 111.625 313.171875 108.285156 C 313.535156 106.207031 313.789062 103.011719 313.839844 101.386719 C 313.914062 99.0625 315.769531 99.085938 316.132812 100.085938 C 316.832031 101.992188 317.976562 104.503906 320.132812 106.804688 C 322.320312 109.136719 325.882812 110.722656 329.554688 111.707031 C 331.199219 112.148438 333.527344 112.457031 335.828125 112.199219 C 337.363281 112.027344 339.210938 111.148438 340.320312 110.945312 C 345.269531 110.035156 347.28125 110.277344 349.40625 111.644531 C 350.671875 112.460938 352.222656 114.773438 353.324219 116.496094 C 354.574219 118.457031 355.285156 119.859375 355.011719 121.097656 C 354.832031 121.898438 355.386719 123.132812 354.6875 124.765625 C 353.894531 126.597656 355 125.859375 355.742188 125.070312 C 356.308594 124.460938 357.113281 124.234375 357.449219 123.507812 C 359.121094 119.960938 361.179688 120.203125 362.828125 122.0625 C 363.9375 123.320312 364.25 125.84375 364.25 127.390625 C 364.25 128.898438 363.121094 132.921875 361.625 134.402344 C 360.246094 135.769531 358.519531 135.519531 357.539062 137.105469 C 357.277344 137.527344 357.355469 139.414062 357.089844 141.167969 C 356.742188 143.457031 356.28125 144.585938 356.03125 145.207031 C 355.648438 146.144531 358.382812 151.933594 361.5625 153.621094 C 363.464844 154.632812 365.644531 152.554688 365.902344 153.46875 C 367.367188 158.734375 360.84375 164.347656 360.585938 169.492188 C 360.476562 171.722656 357.070312 174.765625 355.484375 175.84375 C 349.816406 179.699219 333.382812 176.910156 332.289062 174.234375 C 331.996094 173.523438 333.671875 171.507812 333.140625 167.9375 C 332.570312 164.152344 329.929688 159.066406 329.140625 158.753906 C 326.910156 157.863281 322.332031 155.929688 318.710938 152.53125 C 317.195312 151.113281 316.140625 149.183594 315.109375 148.011719 C 313.730469 146.4375 312.21875 147.984375 311.777344 147.9375 C 310.121094 147.773438 307.386719 146.023438 306.128906 144.253906 C 305.382812 143.207031 304.257812 140.695312 303.8125 138.894531 C 303.308594 136.875 303.558594 135.570312 304.210938 134.675781 C 304.71875 133.980469 306.613281 133.726562 307.734375 134.253906 C 308.660156 134.691406 308.878906 135.859375 308.953125 135.957031 C 309.929688 137.296875 311.144531 133.722656 310.246094 132.722656 " fill-opacity="1" fill-rule="evenodd"/><path fill="#ba736a" d="M 302.125 211.546875 C 302.125 207.195312 302.851562 202.710938 304.933594 198.664062 C 307.691406 193.304688 312.476562 188.757812 317.710938 186.769531 C 319.375 186.140625 320.96875 183.148438 324.15625 181.625 C 327.394531 180.070312 332.230469 179.992188 333.917969 179.992188 C 334.792969 179.992188 335.761719 180.101562 336.796875 180.3125 C 338.210938 180.601562 335.0625 177.675781 335.003906 176.070312 C 334.945312 174.460938 337.238281 173.195312 338.132812 172.785156 C 339.082031 172.347656 341.851562 171.996094 343.703125 172.714844 C 347.054688 174.015625 349.957031 177.277344 351.726562 178.925781 C 352.46875 179.617188 355.359375 184.234375 356.507812 187.574219 C 357.714844 191.101562 357.164062 193.363281 357.742188 194.191406 C 359.703125 196.996094 361.039062 199.957031 361.683594 202.636719 C 362.753906 207.109375 352.21875 208.917969 352.21875 213.066406 C 352.21875 226.847656 342.050781 238.019531 329.507812 238.019531 C 325.363281 238.019531 320.933594 241.574219 316.972656 240.621094 C 313.578125 239.800781 309.121094 234.316406 306.417969 230.222656 C 305.046875 228.144531 304.140625 223.785156 302.925781 219.972656 C 302.664062 219.152344 301.261719 221.019531 301.632812 224.210938 C 301.992188 227.359375 304.542969 232.660156 306.769531 235.972656 C 308.910156 239.152344 309.820312 242.195312 309.679688 245.019531 C 309.585938 247.019531 308.703125 248.289062 307.789062 249.410156 C 307.269531 250.050781 304.234375 251.675781 302.023438 254.054688 C 300.902344 255.257812 299.933594 256.996094 299.730469 258.195312 C 299.566406 259.191406 300.296875 262.613281 301.5 263.417969 C 302.910156 264.359375 304.84375 262.617188 304.949219 262.890625 C 305.476562 264.21875 305.242188 266.789062 303.691406 268.117188 C 298.984375 272.128906 290 271.289062 289.054688 270.792969 C 288.140625 270.3125 285.296875 268.007812 284.15625 264.390625 C 283.257812 261.554688 282.84375 259.050781 283.613281 256.300781 C 284.761719 252.238281 287.8125 249.714844 289.46875 247.300781 C 290.394531 245.953125 290.46875 243.675781 290.535156 243.5 C 290.839844 242.6875 290.210938 240.476562 289.152344 237.957031 C 288.835938 237.214844 288.480469 236.441406 288.105469 235.664062 C 286.882812 233.171875 286.1875 231.589844 286.203125 229.851562 C 286.238281 225.832031 288.332031 220.070312 291.367188 217.1875 C 294.226562 214.46875 297.324219 213.289062 299.601562 213.210938 C 301.140625 213.160156 302.125 211.773438 302.125 211.546875 " fill-opacity="1" fill-rule="evenodd"/><path fill="#ffe9e1" d="M 316.582031 220.820312 C 316.371094 220.3125 316.898438 217.4375 316.609375 214.621094 C 316.28125 211.515625 315.007812 207.347656 315.144531 204.046875 C 315.273438 200.945312 316.746094 198.660156 318.4375 197.203125 C 319.429688 196.351562 322.332031 193.371094 323.980469 193.734375 C 325.691406 194.109375 327.894531 195.5 329.5625 196.542969 C 332.839844 198.59375 335.613281 200.738281 339.488281 201.292969 C 341.417969 201.566406 344.53125 200.992188 346.117188 200.335938 C 346.601562 200.136719 348.90625 201.777344 351.746094 203.4375 C 354.140625 204.839844 357.132812 206.296875 357.511719 206.289062 C 358.707031 206.273438 360.269531 205.773438 360.492188 204.785156 C 360.558594 204.46875 361.902344 203.222656 362.265625 202.402344 C 362.300781 202.324219 361.765625 201.570312 361.484375 200.535156 C 361.199219 199.484375 361.179688 198.148438 361.613281 197.335938 C 362.132812 196.359375 362.8125 195.257812 363.839844 194.804688 C 365.6875 194.003906 367.296875 192.945312 367.296875 192.945312 L 367.46875 197.871094 C 367.46875 197.871094 371.984375 200.464844 371.578125 202.296875 C 371.167969 204.125 368.179688 203.992188 368.339844 204.117188 C 369.945312 205.417969 371.480469 206.535156 372.015625 207.699219 C 373.011719 209.871094 371.824219 211.105469 370.195312 211.394531 C 368.558594 211.683594 369.992188 212.738281 370.140625 212.839844 C 371.214844 213.554688 372.089844 214.160156 372.308594 215.238281 C 372.527344 216.339844 371.703125 217.097656 370.730469 217.230469 C 369.59375 217.390625 368.265625 216.832031 368.46875 217.089844 C 368.90625 217.644531 369.722656 218.746094 370.414062 219.734375 C 371.148438 220.785156 371.738281 221.714844 371.632812 222.023438 C 371.199219 223.226562 369.847656 223.398438 368.792969 223.476562 C 368.058594 223.53125 367.46875 223.636719 367.46875 223.636719 L 367.550781 256.160156 C 367.550781 256.160156 359.957031 259.449219 359.121094 259.742188 C 357.261719 260.386719 353.878906 260.433594 351.167969 259.742188 C 348.402344 259.039062 346.335938 257.582031 346.269531 256.582031 C 346.199219 255.585938 345.746094 254.597656 345.234375 253.296875 C 344.703125 251.949219 344.105469 250.304688 343.585938 250.304688 C 341.632812 250.304688 338.539062 249.605469 336.105469 248.839844 C 333.804688 248.113281 332.164062 247.34375 330.351562 246.273438 C 329.550781 245.800781 329.25 246.914062 327.996094 247.25 C 327.101562 247.488281 324.875 247.175781 323.027344 246.40625 C 320.992188 245.558594 318.441406 243.566406 317.441406 241.667969 C 316.265625 239.453125 315.726562 239.191406 316.992188 237.796875 C 317.574219 237.15625 318.847656 236.703125 320.726562 236.726562 C 321.375 236.734375 321.765625 232.542969 321.558594 231.269531 C 321.085938 228.347656 317.753906 223.648438 316.582031 220.820312 " fill-opacity="1" fill-rule="evenodd"/><path fill="#ea6f68" d="M 339.664062 305.105469 C 339.664062 305.105469 332.769531 297.550781 331.398438 295.789062 C 330.027344 294.019531 326.949219 289.410156 326.261719 287.203125 C 325.578125 284.996094 323.769531 279.011719 323.71875 276.855469 C 323.671875 274.695312 323.769531 269.542969 324.792969 266.992188 C 325.824219 264.441406 327.878906 261.550781 329.195312 260.566406 C 330.515625 259.585938 334.527344 257.625 336.140625 257.28125 C 337.757812 256.9375 343.039062 256.546875 344.261719 256.496094 C 345.480469 256.449219 346.265625 256.449219 346.949219 257.183594 C 347.632812 257.921875 351.839844 260.421875 353.503906 260.371094 C 355.167969 260.320312 359.570312 259.78125 361.328125 259.046875 C 363.089844 258.308594 367.394531 255.808594 367.394531 255.808594 L 367.589844 302.410156 C 367.589844 302.410156 366.539062 301.890625 365.191406 300.589844 C 363.847656 299.289062 359.667969 294.664062 359.667969 294.664062 C 359.667969 294.664062 354.867188 294.714844 353.234375 294.957031 C 351.601562 295.195312 347.949219 296.160156 346.125 297.410156 C 344.300781 298.664062 342.761719 300.109375 342.136719 301.167969 C 341.511719 302.230469 339.664062 305.105469 339.664062 305.105469 " fill-opacity="1" fill-rule="evenodd"/><path fill="#ea6f68" d="M 334.242188 179.832031 C 334.242188 179.832031 334.636719 178.617188 335.8125 178.375 C 336.988281 178.136719 338.90625 178.324219 339.839844 178.882812 C 340.777344 179.441406 341.449219 179.71875 341.699219 180.582031 C 341.957031 181.449219 342.300781 182.339844 340.875 181.714844 C 339.445312 181.085938 334.242188 179.832031 334.242188 179.832031 " fill-opacity="1" fill-rule="evenodd"/><path fill="#ea6f68" d="M 302.53125 219.707031 C 301.992188 219.714844 301.835938 219.4375 301.175781 218.199219 C 300.515625 216.957031 300.375 215.617188 300.304688 214.320312 C 300.234375 213.023438 300.199219 212.003906 301.132812 212.0625 C 302.070312 212.125 302.117188 211.527344 302.316406 213.40625 C 302.515625 215.277344 303.070312 219.703125 302.53125 219.707031 " fill-opacity="1" fill-rule="evenodd"/><path fill="#efefef" d="M 324.828125 180.683594 C 324.828125 180.683594 327.867188 179.0625 328.738281 178.242188 C 329.613281 177.417969 332.015625 174.308594 332.015625 174.308594 L 334.972656 175.285156 C 334.972656 175.285156 335.039062 176.492188 335.496094 177.296875 C 335.957031 178.101562 335.542969 178.417969 335.003906 178.910156 C 334.464844 179.402344 334.828125 180.117188 333.769531 180.089844 C 332.710938 180.066406 330.53125 180.300781 329.472656 180.25 C 328.417969 180.199219 327.113281 180.671875 326.050781 181.101562 C 324.988281 181.53125 324.828125 180.683594 324.828125 180.683594 " fill-opacity="1" fill-rule="evenodd"/><path fill="#efefef" d="M 350.285156 177.273438 C 351.25 177.300781 352.335938 177.171875 353.398438 176.691406 C 354.457031 176.210938 356.277344 175.09375 357.3125 174.359375 C 358.347656 173.625 359.6875 170.835938 359.789062 171.445312 C 359.886719 172.050781 360.269531 173.671875 360.773438 174.410156 C 361.28125 175.144531 362.140625 175.5 361.429688 176.132812 C 360.722656 176.765625 360.269531 177.675781 360.648438 178.59375 C 361.023438 179.503906 361.710938 181.378906 363.171875 182.316406 C 364.640625 183.253906 366.179688 184.265625 366.9375 184.726562 C 367.699219 185.179688 367.546875 184.75 367.570312 186.21875 C 367.59375 187.6875 367.722656 193.289062 367.722656 193.289062 C 367.722656 193.289062 366.410156 193.570312 365.597656 194 C 364.792969 194.425781 362.519531 195.445312 362.140625 196.355469 C 361.757812 197.269531 361.40625 200.132812 360.976562 199.371094 C 360.546875 198.609375 359.609375 197.191406 358.777344 196 C 357.941406 194.808594 357.617188 194.023438 357.515625 193.109375 C 357.414062 192.199219 356.730469 187.917969 356.023438 186.371094 C 355.316406 184.824219 354.328125 182.089844 353.320312 180.769531 C 352.308594 179.453125 349.328125 177.25 350.285156 177.273438 " fill-opacity="1" fill-rule="evenodd"/><path fill="#efefef" d="M 302.507812 219.550781 C 302.507812 219.550781 303.269531 220.382812 303.453125 221.550781 C 303.632812 222.714844 304.652344 225.914062 305.265625 227.371094 C 305.882812 228.828125 307.117188 231.230469 307.917969 232.285156 C 308.714844 233.339844 309.910156 234.832031 311.582031 236.472656 C 313.253906 238.109375 313.6875 239.019531 315.136719 239.75 C 316.589844 240.476562 316.734375 240.691406 317.535156 241.714844 C 318.332031 242.734375 319.492188 244.113281 320.507812 244.878906 C 321.523438 245.644531 323.015625 246.371094 324.027344 246.773438 C 325.046875 247.171875 326.097656 247.574219 327.148438 247.316406 C 328.203125 247.0625 328.964844 246.847656 329.328125 246.335938 C 329.691406 245.824219 329.761719 245.972656 331.105469 246.625 C 332.445312 247.28125 335.460938 248.738281 336.765625 249.136719 C 338.074219 249.535156 339.199219 249.71875 340.832031 249.898438 C 342.464844 250.085938 343.441406 250.046875 343.84375 250.851562 C 344.242188 251.648438 345.621094 252.632812 345.765625 253.871094 C 345.910156 255.105469 346.675781 256.523438 345.945312 256.558594 C 345.222656 256.597656 343.699219 256.816406 341.484375 256.886719 C 339.269531 256.960938 336.148438 257.800781 334.734375 258.015625 C 333.320312 258.238281 330.851562 259.328125 329.582031 260.421875 C 328.308594 261.511719 327.257812 262.714844 326.535156 263.878906 C 325.804688 265.042969 325.480469 265.078125 324.28125 264.425781 C 323.085938 263.769531 320.832031 261.648438 318.871094 259.488281 C 316.90625 257.324219 314.972656 254.207031 313.417969 251.980469 C 311.871094 249.753906 310.386719 247.269531 309.949219 246.066406 C 309.515625 244.859375 309.96875 243.058594 309.324219 241.429688 C 308.679688 239.800781 308.175781 238.398438 307.367188 237.074219 C 306.5625 235.757812 305.046875 233.066406 304.050781 231.246094 C 303.058594 229.421875 302.171875 227.371094 301.933594 226.070312 C 301.691406 224.765625 301.46875 223.351562 301.609375 222.234375 C 301.75 221.117188 302.507812 219.550781 302.507812 219.550781 " fill-opacity="1" fill-rule="evenodd"/><path fill="#ea6f68" d="M 349.097656 229.21875 C 342.210938 230.578125 345.027344 239.941406 351.546875 238.472656 C 355.570312 237.566406 353.289062 228.386719 349.097656 229.21875 " fill-opacity="1" fill-rule="evenodd"/><path fill="#ea6f68" d="M 338.667969 141.679688 C 336.386719 137.808594 334.039062 144.019531 334.796875 146.292969 C 335.386719 148.066406 338.699219 152.898438 339.785156 148.53125 C 340.457031 145.84375 339.949219 143.847656 338.667969 141.679688 " fill-opacity="1" fill-rule="evenodd"/><path fill="#2e2020" d="M 281.019531 129.433594 C 280.789062 129.433594 280.570312 129.296875 280.472656 129.074219 C 280.34375 128.769531 280.488281 128.421875 280.789062 128.292969 L 288.511719 125.023438 C 288.8125 124.894531 289.160156 125.039062 289.285156 125.339844 C 289.414062 125.644531 289.269531 125.992188 288.972656 126.121094 L 281.246094 129.386719 C 281.171875 129.417969 281.097656 129.433594 281.019531 129.433594 " fill-opacity="1" fill-rule="nonzero"/><path fill="#2e2020" d="M 289.671875 116.144531 C 289.578125 116.144531 289.484375 116.121094 289.398438 116.074219 L 281.980469 112.152344 C 281.691406 112 281.582031 111.640625 281.734375 111.351562 C 281.886719 111.0625 282.246094 110.953125 282.535156 111.105469 L 289.945312 115.023438 C 290.234375 115.175781 290.347656 115.535156 290.195312 115.824219 C 290.089844 116.027344 289.882812 116.144531 289.671875 116.144531 " fill-opacity="1" fill-rule="nonzero"/><g clip-path="url(#9c5457a02c)"><path fill="#2e2020" d="M 288.453125 121.269531 C 288.433594 121.269531 288.414062 121.269531 288.394531 121.265625 L 280.050781 120.460938 C 279.726562 120.429688 279.488281 120.140625 279.519531 119.8125 C 279.550781 119.488281 279.839844 119.246094 280.167969 119.28125 L 288.507812 120.085938 C 288.832031 120.117188 289.070312 120.40625 289.039062 120.734375 C 289.011719 121.039062 288.753906 121.269531 288.453125 121.269531 " fill-opacity="1" fill-rule="nonzero"/></g><path fill="#2e2020" d="M 286.097656 202.660156 C 285.769531 202.660156 285.507812 202.394531 285.503906 202.070312 C 285.503906 201.742188 285.765625 201.472656 286.09375 201.472656 L 294.472656 201.425781 C 294.476562 201.425781 294.476562 201.425781 294.476562 201.425781 C 294.804688 201.425781 295.066406 201.683594 295.070312 202.015625 C 295.074219 202.34375 294.808594 202.609375 294.480469 202.613281 L 286.097656 202.660156 " fill-opacity="1" fill-rule="nonzero"/><path fill="#2e2020" d="M 299.171875 193.710938 C 299 193.710938 298.832031 193.640625 298.714844 193.496094 L 293.367188 187.023438 C 293.15625 186.769531 293.191406 186.394531 293.445312 186.1875 C 293.695312 185.980469 294.070312 186.011719 294.277344 186.265625 L 299.625 192.738281 C 299.832031 192.992188 299.796875 193.367188 299.546875 193.574219 C 299.4375 193.664062 299.304688 193.710938 299.171875 193.710938 " fill-opacity="1" fill-rule="nonzero"/><path fill="#2e2020" d="M 296.082031 197.976562 C 295.992188 197.976562 295.894531 197.953125 295.804688 197.90625 L 288.410156 193.953125 C 288.121094 193.800781 288.011719 193.441406 288.164062 193.148438 C 288.316406 192.863281 288.675781 192.75 288.96875 192.90625 L 296.363281 196.859375 C 296.652344 197.011719 296.757812 197.375 296.605469 197.664062 C 296.5 197.863281 296.292969 197.976562 296.082031 197.976562 " fill-opacity="1" fill-rule="nonzero"/><path fill="#2e2020" d="M 345.210938 250.929688 C 343.574219 250.929688 341.894531 250.785156 340.199219 250.484375 C 333.84375 249.359375 328.203125 246.199219 325.824219 242.429688 C 325.648438 242.152344 325.730469 241.785156 326.007812 241.609375 C 326.28125 241.433594 326.648438 241.515625 326.824219 241.796875 C 329.03125 245.296875 334.363281 248.246094 340.40625 249.316406 C 347.105469 250.5 353.480469 249.207031 357.902344 245.785156 C 364.375 240.761719 367.363281 233.160156 366.09375 224.933594 C 366.042969 224.609375 366.265625 224.308594 366.585938 224.257812 C 366.917969 224.207031 367.210938 224.429688 367.261719 224.753906 C 368.601562 233.417969 365.453125 241.425781 358.625 246.722656 C 355.074219 249.476562 350.351562 250.929688 345.210938 250.929688 " fill-opacity="1" fill-rule="nonzero"/><path fill="#2e2020" d="M 342.300781 226.429688 C 342.21875 226.429688 342.136719 226.410156 342.0625 226.375 C 341.765625 226.246094 341.625 225.898438 341.753906 225.597656 C 342.183594 224.605469 342.160156 224.148438 342.0625 223.941406 C 341.917969 223.625 341.40625 223.472656 340.804688 223.296875 C 340.167969 223.105469 339.441406 222.886719 338.878906 222.371094 C 338.179688 221.722656 337.933594 220.914062 337.714844 220.195312 C 337.574219 219.722656 337.4375 219.273438 337.1875 218.925781 C 336.992188 218.65625 337.054688 218.289062 337.320312 218.09375 C 337.585938 217.902344 337.957031 217.964844 338.144531 218.230469 C 338.515625 218.738281 338.6875 219.304688 338.851562 219.855469 C 339.035156 220.476562 339.214844 221.070312 339.679688 221.496094 C 340.042969 221.828125 340.605469 221.996094 341.144531 222.15625 C 341.941406 222.394531 342.765625 222.640625 343.136719 223.4375 C 343.433594 224.082031 343.339844 224.917969 342.839844 226.070312 C 342.742188 226.292969 342.527344 226.429688 342.300781 226.429688 " fill-opacity="1" fill-rule="nonzero"/><path fill="#2e2020" d="M 314.8125 228.121094 C 314.734375 228.121094 314.652344 228.101562 314.574219 228.066406 C 314.273438 227.9375 314.140625 227.582031 314.273438 227.285156 C 316.753906 221.699219 316.09375 216.039062 315.398438 210.046875 C 315.273438 209 315.15625 207.945312 315.046875 206.886719 C 314.53125 201.722656 315.609375 198.371094 318.351562 196.628906 C 318.628906 196.453125 318.992188 196.539062 319.167969 196.8125 C 319.339844 197.089844 319.257812 197.457031 318.984375 197.632812 C 316.65625 199.109375 315.753906 202.097656 316.226562 206.765625 C 316.328125 207.820312 316.453125 208.867188 316.574219 209.910156 C 317.289062 216.066406 317.964844 221.882812 315.355469 227.765625 C 315.257812 227.988281 315.039062 228.121094 314.8125 228.121094 " fill-opacity="1" fill-rule="nonzero"/><path fill="#2e2020" d="M 341.433594 202.050781 C 336.992188 202.050781 332.304688 199.460938 328.703125 196.851562 C 327.117188 195.699219 325.269531 194.449219 323.402344 194.242188 C 323.136719 194.214844 322.28125 194.476562 321.996094 194.691406 C 322.054688 194.9375 321.960938 195.203125 321.738281 195.34375 C 321.460938 195.519531 321.09375 195.4375 320.921875 195.160156 C 320.714844 194.835938 320.714844 194.457031 320.917969 194.132812 C 321.398438 193.359375 323.066406 193.015625 323.53125 193.0625 C 325.6875 193.300781 327.691406 194.648438 329.402344 195.886719 C 333.3125 198.726562 340.671875 202.976562 346.03125 199.570312 C 346.308594 199.394531 346.671875 199.480469 346.847656 199.753906 C 347.023438 200.03125 346.941406 200.398438 346.664062 200.574219 C 345.023438 201.613281 343.25 202.050781 341.433594 202.050781 " fill-opacity="1" fill-rule="nonzero"/><path fill="#2e2020" d="M 358.179688 206.746094 C 355.011719 206.746094 350.472656 203.640625 347.335938 200.769531 C 347.09375 200.546875 347.078125 200.171875 347.300781 199.925781 C 347.523438 199.6875 347.894531 199.671875 348.136719 199.886719 C 352.339844 203.742188 356.628906 205.988281 358.820312 205.492188 C 359.488281 205.339844 359.945312 204.925781 360.222656 204.234375 C 360.34375 203.929688 360.691406 203.785156 360.996094 203.90625 C 361.296875 204.027344 361.441406 204.375 361.324219 204.679688 C 360.902344 205.726562 360.128906 206.410156 359.085938 206.648438 C 358.796875 206.710938 358.496094 206.746094 358.179688 206.746094 " fill-opacity="1" fill-rule="nonzero"/><path fill="#2e2020" d="M 316.023438 240.9375 C 315.921875 240.9375 315.824219 240.914062 315.730469 240.859375 C 312.804688 239.1875 307.222656 233.050781 305.605469 229.726562 C 302.929688 224.21875 299.441406 211.980469 303.339844 201.050781 C 305.726562 194.34375 310.460938 189.316406 317.410156 186.117188 C 317.707031 185.980469 318.058594 186.109375 318.195312 186.410156 C 318.328125 186.707031 318.199219 187.0625 317.902344 187.195312 C 311.257812 190.257812 306.730469 195.054688 304.453125 201.449219 C 300.6875 212.007812 304.074219 223.867188 306.671875 229.207031 C 308.179688 232.316406 313.589844 238.269531 316.316406 239.828125 C 316.597656 239.988281 316.699219 240.351562 316.539062 240.636719 C 316.429688 240.828125 316.226562 240.9375 316.023438 240.9375 " fill-opacity="1" fill-rule="nonzero"/><path fill="#2e2020" d="M 361.398438 203.304688 C 361.113281 203.304688 360.859375 203.09375 360.816406 202.800781 C 359.667969 195.105469 350.710938 185.890625 340.851562 182.257812 C 332.933594 179.339844 325.574219 180.363281 320.136719 185.128906 C 319.890625 185.347656 319.515625 185.320312 319.300781 185.074219 C 319.085938 184.828125 319.109375 184.453125 319.355469 184.234375 C 325.140625 179.167969 332.917969 178.074219 341.261719 181.144531 C 351.480469 184.910156 360.78125 194.542969 361.988281 202.625 C 362.035156 202.945312 361.8125 203.246094 361.488281 203.296875 C 361.457031 203.300781 361.429688 203.304688 361.398438 203.304688 " fill-opacity="1" fill-rule="nonzero"/><path fill="#2e2020" d="M 327.558594 228.652344 C 326.628906 227.332031 326.71875 225.660156 327.761719 224.925781 C 328.804688 224.1875 330.402344 224.660156 331.332031 225.984375 C 332.261719 227.304688 332.171875 228.972656 331.132812 229.710938 C 330.085938 230.449219 328.488281 229.976562 327.558594 228.652344 " fill-opacity="1" fill-rule="evenodd"/><path fill="#2e2020" d="M 345.722656 215.113281 C 344.792969 213.792969 344.882812 212.125 345.925781 211.386719 C 346.964844 210.648438 348.566406 211.121094 349.496094 212.445312 C 350.425781 213.765625 350.332031 215.4375 349.292969 216.171875 C 348.25 216.910156 346.652344 216.4375 345.722656 215.113281 " fill-opacity="1" fill-rule="evenodd"/><path fill="#2e2020" d="M 333.710938 206.019531 C 333.632812 206.019531 333.546875 206 333.46875 205.96875 C 333.171875 205.832031 333.039062 205.480469 333.171875 205.183594 C 333.984375 203.363281 337.421875 200.699219 340.246094 199.707031 C 340.554688 199.601562 340.890625 199.761719 341 200.070312 C 341.105469 200.378906 340.941406 200.71875 340.636719 200.828125 C 337.9375 201.773438 334.871094 204.28125 334.253906 205.667969 C 334.15625 205.890625 333.9375 206.019531 333.710938 206.019531 " fill-opacity="1" fill-rule="nonzero"/><path fill="#2e2020" d="M 317.097656 220.570312 C 317.039062 220.570312 316.984375 220.5625 316.929688 220.546875 C 316.617188 220.453125 316.433594 220.125 316.527344 219.808594 C 317.558594 216.304688 320.207031 213.804688 323.792969 212.960938 C 324.109375 212.890625 324.433594 213.085938 324.503906 213.40625 C 324.578125 213.722656 324.382812 214.042969 324.0625 214.121094 C 322.207031 214.558594 318.90625 215.921875 317.664062 220.148438 C 317.585938 220.40625 317.351562 220.570312 317.097656 220.570312 " fill-opacity="1" fill-rule="nonzero"/><path fill="#2e2020" d="M 327.132812 247.765625 C 325.917969 247.765625 324.765625 247.496094 324.535156 247.4375 C 321.078125 246.578125 316.757812 243.195312 316.082031 239.703125 C 315.738281 237.941406 317.011719 236.6875 318.339844 236.269531 C 319.667969 235.851562 321.429688 236.164062 322.164062 237.832031 C 322.296875 238.132812 322.160156 238.484375 321.863281 238.613281 C 321.566406 238.75 321.214844 238.613281 321.082031 238.3125 C 320.636719 237.304688 319.5625 237.132812 318.691406 237.402344 C 317.824219 237.675781 317.039062 238.425781 317.246094 239.476562 C 317.769531 242.183594 321.378906 245.429688 324.816406 246.285156 C 326.527344 246.707031 328.59375 246.707031 328.949219 246.03125 C 329.101562 245.742188 329.460938 245.625 329.75 245.78125 C 330.039062 245.933594 330.148438 246.292969 329.996094 246.582031 C 329.507812 247.515625 328.296875 247.765625 327.132812 247.765625 " fill-opacity="1" fill-rule="nonzero"/><path fill="#2e2020" d="M 325.417969 243.476562 C 325.316406 243.476562 325.214844 243.453125 325.117188 243.394531 C 324.144531 242.816406 323.214844 242.464844 322.230469 242.09375 C 321.636719 241.867188 321.035156 241.640625 320.414062 241.359375 C 320.113281 241.222656 319.984375 240.871094 320.117188 240.574219 C 320.25 240.273438 320.597656 240.140625 320.898438 240.277344 C 321.496094 240.546875 322.078125 240.765625 322.648438 240.984375 C 323.636719 241.355469 324.65625 241.742188 325.722656 242.371094 C 326.003906 242.539062 326.097656 242.902344 325.929688 243.183594 C 325.820312 243.371094 325.621094 243.476562 325.417969 243.476562 " fill-opacity="1" fill-rule="nonzero"/><path fill="#2e2020" d="M 321.101562 237.007812 C 321.046875 237.007812 320.992188 237.003906 320.9375 236.984375 C 320.625 236.894531 320.441406 236.566406 320.53125 236.25 C 321.738281 232.070312 320.570312 229.722656 318.640625 225.84375 L 318.417969 225.390625 C 318.269531 225.097656 318.390625 224.742188 318.683594 224.597656 C 318.976562 224.449219 319.332031 224.566406 319.476562 224.863281 L 319.699219 225.3125 C 321.691406 229.308594 323.003906 231.953125 321.667969 236.582031 C 321.59375 236.839844 321.355469 237.007812 321.101562 237.007812 " fill-opacity="1" fill-rule="nonzero"/><path fill="#2e2020" d="M 302.160156 220.566406 C 302.035156 220.566406 301.910156 220.527344 301.800781 220.445312 C 300.382812 219.363281 299.019531 214.21875 299.976562 212.417969 C 300.34375 211.726562 301.03125 211.472656 301.816406 211.742188 C 302.128906 211.851562 302.292969 212.1875 302.1875 212.5 C 302.082031 212.808594 301.75 212.976562 301.433594 212.867188 C 301.132812 212.765625 301.085938 212.855469 301.023438 212.972656 C 300.359375 214.21875 301.5625 218.765625 302.519531 219.503906 C 302.78125 219.703125 302.828125 220.074219 302.628906 220.335938 C 302.515625 220.488281 302.339844 220.566406 302.160156 220.566406 " fill-opacity="1" fill-rule="nonzero"/><path fill="#2e2020" d="M 292.125 271.980469 C 292.078125 271.980469 292.03125 271.972656 291.984375 271.960938 C 291.597656 271.867188 291.226562 271.792969 290.871094 271.722656 C 289.5 271.453125 288.210938 271.199219 287.019531 269.957031 L 286.710938 269.636719 C 285.585938 268.472656 284.421875 267.269531 283.882812 265.699219 C 282.976562 263.046875 281.28125 256.371094 285.136719 251.636719 C 285.535156 251.140625 285.972656 250.644531 286.421875 250.140625 C 288.203125 248.125 290.050781 246.046875 290.09375 243.410156 C 290.132812 240.710938 289.046875 238.578125 287.902344 236.316406 C 287.058594 234.644531 286.179688 232.917969 285.789062 230.941406 C 285.070312 227.300781 286.113281 223.171875 288.652344 219.609375 C 291.367188 215.804688 295.375 213.207031 299.378906 212.667969 C 299.695312 212.621094 299.996094 212.855469 300.042969 213.179688 C 300.085938 213.5 299.855469 213.800781 299.53125 213.84375 C 295.851562 214.339844 292.144531 216.753906 289.617188 220.300781 C 287.265625 223.597656 286.296875 227.390625 286.953125 230.710938 C 287.308594 232.527344 288.109375 234.105469 288.957031 235.777344 C 290.121094 238.070312 291.324219 240.4375 291.277344 243.429688 C 291.226562 246.503906 289.140625 248.855469 287.304688 250.929688 C 286.871094 251.421875 286.441406 251.90625 286.050781 252.386719 C 282.574219 256.664062 284.160156 262.847656 285 265.308594 C 285.457031 266.632812 286.523438 267.742188 287.558594 268.808594 L 287.871094 269.132812 C 288.804688 270.109375 289.816406 270.308594 291.097656 270.558594 C 291.46875 270.632812 291.859375 270.710938 292.265625 270.808594 C 292.582031 270.886719 292.777344 271.207031 292.699219 271.523438 C 292.636719 271.796875 292.390625 271.980469 292.125 271.980469 " fill-opacity="1" fill-rule="nonzero"/><path fill="#2e2020" d="M 302.554688 264.191406 C 301.695312 264.191406 301.097656 263.808594 300.738281 263.480469 C 298.925781 261.816406 298.832031 257.617188 300.027344 255.46875 C 300.949219 253.820312 302.722656 252.472656 304.441406 251.171875 C 306.921875 249.292969 309.265625 247.515625 309.179688 244.992188 C 309.046875 240.949219 307.011719 237.4375 305.046875 234.03125 C 302.476562 229.589844 299.820312 224.988281 301.71875 219.4375 C 301.824219 219.128906 302.160156 218.960938 302.46875 219.070312 C 302.78125 219.175781 302.945312 219.511719 302.835938 219.820312 C 301.113281 224.863281 303.523438 229.027344 306.070312 233.4375 C 308.109375 236.96875 310.21875 240.613281 310.363281 244.949219 C 310.46875 248.09375 307.765625 250.140625 305.152344 252.121094 C 303.460938 253.402344 301.859375 254.613281 301.058594 256.050781 C 300.117188 257.742188 300.179688 261.359375 301.539062 262.609375 C 302.222656 263.234375 303.195312 263.121094 304.429688 262.277344 C 304.699219 262.089844 305.070312 262.164062 305.253906 262.433594 C 305.4375 262.707031 305.367188 263.074219 305.097656 263.257812 C 304.082031 263.953125 303.238281 264.191406 302.554688 264.191406 " fill-opacity="1" fill-rule="nonzero"/><path fill="#2e2020" d="M 298.445312 270.109375 C 297.125 270.109375 295.878906 269.832031 294.957031 269.203125 C 293.785156 268.402344 292.628906 266.734375 293.796875 263.316406 C 293.902344 263.007812 294.238281 262.84375 294.546875 262.949219 C 294.855469 263.054688 295.019531 263.394531 294.914062 263.703125 C 294.171875 265.875 294.410156 267.398438 295.621094 268.222656 C 297.636719 269.59375 301.980469 268.785156 303.878906 267.160156 C 304.128906 266.945312 304.5 266.976562 304.710938 267.226562 C 304.925781 267.472656 304.894531 267.847656 304.648438 268.0625 C 303.214844 269.292969 300.722656 270.109375 298.445312 270.109375 " fill-opacity="1" fill-rule="nonzero"/><path fill="#2e2020" d="M 341.574219 181.34375 C 341.28125 181.34375 341.027344 181.125 340.988281 180.824219 C 340.882812 180.027344 339.398438 179.203125 337.683594 179.003906 C 336.367188 178.84375 335.285156 179.125 335.066406 179.683594 C 334.949219 179.988281 334.605469 180.136719 334.300781 180.023438 C 334 179.902344 333.847656 179.558594 333.964844 179.253906 C 334.402344 178.125 335.84375 177.585938 337.824219 177.824219 C 339.761719 178.054688 341.941406 179.039062 342.160156 180.667969 C 342.207031 180.992188 341.976562 181.292969 341.652344 181.335938 C 341.625 181.339844 341.601562 181.34375 341.574219 181.34375 " fill-opacity="1" fill-rule="nonzero"/><path fill="#2e2020" d="M 357.710938 194.753906 C 357.414062 194.753906 357.160156 194.53125 357.125 194.230469 C 355.996094 184.140625 351.550781 177.332031 343.542969 173.40625 C 341.753906 172.53125 337.535156 173.0625 336.117188 174.707031 C 335.4375 175.492188 335.488281 176.425781 336.265625 177.570312 C 336.449219 177.84375 336.378906 178.210938 336.109375 178.394531 C 335.835938 178.582031 335.46875 178.511719 335.285156 178.238281 C 333.835938 176.101562 334.625 174.625 335.222656 173.929688 C 337.039062 171.828125 341.824219 171.242188 344.0625 172.339844 C 352.347656 176.398438 357.136719 183.71875 358.300781 194.097656 C 358.335938 194.421875 358.101562 194.714844 357.777344 194.753906 C 357.753906 194.753906 357.734375 194.753906 357.710938 194.753906 " fill-opacity="1" fill-rule="nonzero"/><path fill="#2e2020" d="M 346.246094 256.792969 C 345.957031 256.792969 345.699219 256.578125 345.660156 256.277344 C 345.421875 254.472656 344.257812 251.550781 342.90625 250.886719 C 342.613281 250.746094 342.492188 250.390625 342.636719 250.09375 C 342.78125 249.800781 343.136719 249.679688 343.425781 249.824219 C 345.480469 250.828125 346.628906 254.570312 346.835938 256.121094 C 346.878906 256.445312 346.652344 256.746094 346.328125 256.789062 C 346.300781 256.792969 346.273438 256.792969 346.246094 256.792969 " fill-opacity="1" fill-rule="nonzero"/><path fill="#2e2020" d="M 358.261719 323.707031 C 358.109375 323.707031 357.964844 323.648438 357.847656 323.535156 C 354.601562 320.335938 351.5625 317.402344 348.753906 314.6875 C 336.25 302.601562 327.988281 294.621094 325.203125 286.148438 C 323.886719 282.140625 320.175781 268.492188 327.84375 261.15625 C 332.585938 256.613281 339.085938 256.054688 345.890625 255.851562 C 346.21875 255.851562 346.488281 256.097656 346.5 256.425781 C 346.507812 256.753906 346.253906 257.027344 345.925781 257.039062 C 339.363281 257.234375 333.101562 257.761719 328.660156 262.015625 C 322.96875 267.460938 323.722656 277.863281 326.324219 285.777344 C 329.019531 293.96875 337.199219 301.871094 349.578125 313.832031 C 352.386719 316.550781 355.429688 319.484375 358.679688 322.691406 C 358.910156 322.921875 358.914062 323.296875 358.6875 323.53125 C 358.570312 323.648438 358.414062 323.707031 358.261719 323.707031 " fill-opacity="1" fill-rule="nonzero"/><path fill="#2e2020" d="M 366.980469 332.210938 C 364.554688 332.210938 360.28125 328.339844 359.238281 325.09375 C 358.585938 323.074219 359.167969 321.449219 360.882812 320.527344 C 364.101562 318.796875 368.304688 318.867188 371.339844 320.695312 C 372.765625 321.554688 374.3125 322.675781 373.898438 323.886719 C 373.398438 325.347656 369.976562 326.023438 364.996094 326.582031 C 364.664062 326.621094 364.394531 326.648438 364.214844 326.671875 C 363.878906 326.71875 363.589844 326.488281 363.550781 326.164062 C 363.503906 325.839844 363.734375 325.539062 364.054688 325.496094 C 364.242188 325.46875 364.519531 325.441406 364.863281 325.402344 C 371.4375 324.660156 372.644531 323.894531 372.78125 323.5 C 372.78125 323.496094 372.878906 323.003906 370.765625 321.734375 C 368.039062 320.089844 364.304688 320.03125 361.441406 321.574219 C 360.238281 322.21875 359.886719 323.253906 360.363281 324.730469 C 361.382812 327.902344 365.574219 331.203125 367.09375 331.015625 C 367.421875 330.96875 367.710938 331.203125 367.757812 331.527344 C 367.800781 331.847656 367.574219 332.152344 367.25 332.191406 C 367.164062 332.203125 367.074219 332.210938 366.980469 332.210938 " fill-opacity="1" fill-rule="nonzero"/><path fill="#2e2020" d="M 360.152344 321.453125 C 359.945312 321.453125 359.746094 321.34375 359.636719 321.148438 C 357.679688 317.675781 359.132812 315.363281 360.164062 314.292969 C 362.65625 311.726562 367.582031 311.054688 370.917969 312.832031 C 371.265625 313.015625 373.628906 314.566406 373.832031 315.96875 C 373.894531 316.390625 373.765625 316.78125 373.46875 317.074219 C 372.34375 318.1875 370.507812 318.410156 368.730469 318.632812 C 367.339844 318.804688 365.898438 318.984375 365.011719 319.585938 C 364.738281 319.773438 364.371094 319.699219 364.1875 319.429688 C 364.003906 319.160156 364.078125 318.789062 364.34375 318.605469 C 365.46875 317.839844 367.050781 317.644531 368.582031 317.453125 C 370.164062 317.261719 371.796875 317.054688 372.636719 316.226562 C 372.566406 315.488281 371 314.21875 370.363281 313.878906 C 367.503906 312.359375 363.132812 312.9375 361.015625 315.121094 C 359.601562 316.578125 359.480469 318.460938 360.664062 320.566406 C 360.828125 320.851562 360.726562 321.214844 360.445312 321.375 C 360.351562 321.429688 360.25 321.453125 360.152344 321.453125 " fill-opacity="1" fill-rule="nonzero"/><path fill="#2e2020" d="M 360.382812 313.351562 C 360.144531 313.351562 359.921875 313.207031 359.832031 312.976562 C 358.613281 309.902344 359.914062 308.417969 360.800781 307.804688 C 363.386719 306.019531 368.757812 307.039062 371.027344 309.132812 C 371.050781 309.152344 373.097656 311.328125 372.707031 312.582031 C 372.582031 312.976562 372.246094 313.242188 371.785156 313.304688 C 371.449219 313.351562 371.160156 313.117188 371.121094 312.796875 C 371.078125 312.488281 371.277344 312.207031 371.574219 312.140625 C 371.503906 311.644531 370.617188 310.367188 370.230469 310.007812 C 368.339844 308.269531 363.578125 307.328125 361.46875 308.785156 C 360.414062 309.515625 360.234375 310.777344 360.929688 312.539062 C 361.050781 312.84375 360.902344 313.1875 360.597656 313.308594 C 360.527344 313.335938 360.457031 313.351562 360.382812 313.351562 " fill-opacity="1" fill-rule="nonzero"/><path fill="#2e2020" d="M 368.226562 308.179688 C 368.0625 308.179688 367.898438 308.109375 367.78125 307.980469 C 367.570312 307.734375 367.59375 307.359375 367.835938 307.140625 C 368.601562 306.464844 369.445312 305.46875 369.132812 304.546875 C 368.785156 303.523438 367.023438 302.660156 365.035156 302.535156 C 363.503906 302.425781 362.265625 302.824219 361.9375 303.496094 C 361.527344 304.335938 361.726562 305.433594 361.917969 306.5 C 361.976562 306.816406 362.03125 307.128906 362.070312 307.425781 C 362.117188 307.75 361.886719 308.050781 361.5625 308.09375 C 361.234375 308.140625 360.941406 307.910156 360.898438 307.582031 C 360.863281 307.300781 360.808594 307.011719 360.753906 306.710938 C 360.535156 305.515625 360.292969 304.164062 360.875 302.972656 C 361.433594 301.828125 363.019531 301.222656 365.109375 301.347656 C 367.238281 301.484375 369.652344 302.402344 370.253906 304.164062 C 370.542969 305.011719 370.496094 306.375 368.617188 308.03125 C 368.507812 308.132812 368.367188 308.179688 368.226562 308.179688 " fill-opacity="1" fill-rule="nonzero"/><path fill="#2e2020" d="M 366.257812 302.023438 C 366.191406 302.023438 366.128906 302.011719 366.0625 301.988281 C 364.113281 301.320312 351.792969 286.15625 350.960938 279.9375 C 350.917969 279.613281 351.144531 279.3125 351.46875 279.269531 C 351.796875 279.21875 352.089844 279.453125 352.132812 279.78125 C 352.902344 285.527344 364.949219 300.175781 366.457031 300.871094 C 366.769531 300.980469 366.925781 301.3125 366.820312 301.621094 C 366.734375 301.867188 366.503906 302.023438 366.257812 302.023438 " fill-opacity="1" fill-rule="nonzero"/><path fill="#2e2020" d="M 354.65625 261.023438 C 351.261719 261.023438 348.078125 259.804688 345.644531 256.75 C 345.441406 256.496094 345.484375 256.125 345.738281 255.917969 C 345.992188 255.714844 346.367188 255.753906 346.570312 256.011719 C 352.933594 264.003906 363.851562 257.511719 367.046875 255.335938 C 367.316406 255.148438 367.6875 255.222656 367.867188 255.492188 C 368.050781 255.761719 367.980469 256.132812 367.710938 256.316406 C 363.761719 259.011719 359.027344 261.023438 354.65625 261.023438 " fill-opacity="1" fill-rule="nonzero"/><path fill="#2e2020" d="M 340.339844 304.6875 C 340.253906 304.6875 340.164062 304.667969 340.082031 304.625 C 339.785156 304.480469 339.664062 304.128906 339.808594 303.832031 C 344.28125 294.652344 353.25 294.371094 358.609375 294.203125 L 359.433594 294.175781 C 359.804688 294.171875 360.035156 294.417969 360.046875 294.746094 C 360.058594 295.074219 359.804688 295.351562 359.476562 295.363281 L 358.644531 295.390625 C 353.554688 295.546875 345.03125 295.816406 340.871094 304.351562 C 340.769531 304.5625 340.558594 304.6875 340.339844 304.6875 " fill-opacity="1" fill-rule="nonzero"/><path fill="#2e2020" d="M 367.871094 204.371094 C 366.210938 204.371094 364.367188 203.957031 362.941406 203.125 C 360.792969 201.863281 360.09375 199.890625 361.019531 197.703125 L 361.082031 197.5625 C 361.367188 196.882812 361.664062 196.171875 362.203125 195.539062 C 362.878906 194.738281 363.695312 194.328125 364.484375 193.929688 C 364.992188 193.671875 365.472656 193.429688 365.890625 193.085938 C 366.144531 192.882812 366.515625 192.921875 366.722656 193.175781 C 366.929688 193.429688 366.886719 193.804688 366.636719 194.011719 C 366.121094 194.429688 365.558594 194.714844 365.015625 194.988281 C 364.300781 195.351562 363.625 195.691406 363.105469 196.304688 C 362.683594 196.800781 362.433594 197.398438 362.171875 198.027344 L 362.109375 198.171875 C 361.410156 199.8125 361.894531 201.136719 363.539062 202.097656 C 365.976562 203.523438 369.953125 203.460938 370.808594 202.34375 C 371.25 201.765625 370.484375 200.863281 369.996094 200.375 C 369.5625 199.945312 366.289062 197.9375 365.554688 197.859375 C 365.230469 197.828125 364.996094 197.539062 365.03125 197.210938 C 365.0625 196.882812 365.355469 196.652344 365.679688 196.683594 C 366.828125 196.800781 370.371094 199.078125 370.824219 199.53125 C 372.621094 201.304688 372.175781 202.507812 371.75 203.066406 C 371.085938 203.933594 369.574219 204.371094 367.871094 204.371094 " fill-opacity="1" fill-rule="nonzero"/><path fill="#2e2020" d="M 369.21875 211.9375 C 366.535156 211.9375 363.355469 210.53125 361.714844 208.648438 C 360.027344 206.710938 360.015625 204.523438 361.679688 202.636719 C 361.894531 202.390625 362.269531 202.367188 362.515625 202.585938 C 362.757812 202.800781 362.78125 203.175781 362.566406 203.421875 C 360.96875 205.230469 361.710938 206.839844 362.605469 207.867188 C 364.773438 210.351562 369.398438 211.566406 371.449219 210.1875 C 371.691406 210.023438 371.953125 209.746094 371.785156 209.066406 C 371.289062 207.066406 368.050781 204.402344 367.011719 204.292969 C 366.683594 204.257812 366.449219 203.96875 366.480469 203.644531 C 366.515625 203.316406 366.8125 203.082031 367.128906 203.113281 C 368.699219 203.277344 372.328125 206.335938 372.933594 208.78125 C 373.1875 209.796875 372.894531 210.648438 372.109375 211.175781 C 371.316406 211.707031 370.308594 211.9375 369.21875 211.9375 " fill-opacity="1" fill-rule="nonzero"/><path fill="#2e2020" d="M 369.976562 217.671875 C 367.90625 217.671875 363.789062 217.367188 361.910156 215.097656 C 361.054688 214.066406 360.777344 212.777344 361.085938 211.269531 C 361.113281 211.152344 361.128906 211.019531 361.152344 210.882812 C 361.265625 210.191406 361.402344 209.335938 362.027344 208.828125 C 362.277344 208.621094 362.652344 208.65625 362.859375 208.910156 C 363.066406 209.167969 363.027344 209.542969 362.773438 209.746094 C 362.5 209.96875 362.402344 210.582031 362.324219 211.070312 C 362.296875 211.226562 362.273438 211.375 362.246094 211.507812 C 362.007812 212.664062 362.195312 213.589844 362.820312 214.339844 C 364.558594 216.4375 369.054688 216.503906 370.375 216.484375 C 370.761719 216.472656 371.664062 216.402344 371.761719 215.933594 C 371.890625 215.308594 370.960938 214.007812 369.796875 213.480469 C 369.5 213.347656 369.371094 212.996094 369.503906 212.695312 C 369.636719 212.398438 369.988281 212.265625 370.289062 212.398438 C 371.757812 213.066406 373.195312 214.824219 372.917969 216.171875 C 372.808594 216.714844 372.332031 217.628906 370.402344 217.671875 C 370.269531 217.671875 370.128906 217.671875 369.976562 217.671875 " fill-opacity="1" fill-rule="nonzero"/><path fill="#2e2020" d="M 369.253906 223.980469 C 367.59375 223.980469 365.59375 223.3125 364.355469 222.136719 C 362.742188 220.605469 362.761719 218.582031 364.40625 216.585938 C 364.613281 216.332031 364.988281 216.296875 365.238281 216.507812 C 365.492188 216.71875 365.527344 217.089844 365.320312 217.34375 C 364.066406 218.855469 364.019531 220.183594 365.171875 221.277344 C 366.734375 222.757812 369.902344 223.222656 370.785156 222.398438 C 371.277344 221.941406 370.621094 220.972656 370.1875 220.433594 C 369.839844 220.007812 369.523438 219.558594 369.207031 219.109375 C 368.910156 218.683594 368.613281 218.257812 368.28125 217.847656 C 368.078125 217.59375 368.117188 217.21875 368.371094 217.011719 C 368.625 216.804688 369 216.847656 369.203125 217.101562 C 369.546875 217.53125 369.863281 217.976562 370.179688 218.425781 C 370.476562 218.851562 370.777344 219.28125 371.105469 219.6875 C 372.726562 221.6875 372.101562 222.792969 371.589844 223.273438 C 371.066406 223.753906 370.214844 223.980469 369.253906 223.980469 " fill-opacity="1" fill-rule="nonzero"/><path fill="#2e2020" d="M 336.089844 160.582031 C 325.011719 160.585938 315.738281 151.980469 311.199219 142.558594 C 311.058594 142.261719 311.183594 141.90625 311.476562 141.765625 C 311.773438 141.621094 312.125 141.746094 312.265625 142.042969 C 317.492188 152.882812 329.191406 162.621094 342.515625 158.375 C 355.429688 154.261719 357.890625 139.019531 357.316406 130.660156 C 357.292969 130.332031 357.539062 130.050781 357.867188 130.027344 C 358.195312 130.011719 358.472656 130.25 358.496094 130.578125 C 359.097656 139.28125 356.484375 155.171875 342.871094 159.507812 C 340.558594 160.246094 338.285156 160.582031 336.089844 160.582031 " fill-opacity="1" fill-rule="nonzero"/><path fill="#2e2020" d="M 333.886719 136.175781 C 333.742188 136.175781 333.597656 136.121094 333.480469 136.015625 C 333.242188 135.789062 333.230469 135.414062 333.457031 135.171875 C 335.1875 133.332031 334.566406 132.566406 333.53125 131.292969 C 333.078125 130.734375 332.5625 130.101562 332.292969 129.332031 C 331.933594 128.300781 332.007812 127.453125 332.078125 126.707031 C 332.128906 126.183594 332.175781 125.6875 332.082031 125.128906 C 332.027344 124.800781 332.246094 124.496094 332.570312 124.445312 C 332.886719 124.390625 333.195312 124.609375 333.246094 124.933594 C 333.367188 125.644531 333.3125 126.242188 333.257812 126.820312 C 333.191406 127.535156 333.132812 128.148438 333.410156 128.933594 C 333.613281 129.511719 334.019531 130.015625 334.449219 130.542969 C 335.476562 131.8125 336.761719 133.390625 334.316406 135.988281 C 334.203125 136.109375 334.046875 136.175781 333.886719 136.175781 " fill-opacity="1" fill-rule="nonzero"/><path fill="#2e2020" d="M 303.699219 134.464844 C 303.511719 134.464844 303.332031 134.378906 303.214844 134.21875 C 301.425781 131.707031 297.386719 123.570312 297.039062 115.753906 C 296.816406 110.765625 297.164062 98.230469 305.191406 89.515625 C 310.28125 83.996094 317.527344 81.035156 326.730469 80.722656 C 327.070312 80.695312 327.335938 80.96875 327.347656 81.296875 C 327.359375 81.625 327.101562 81.898438 326.773438 81.910156 C 317.898438 82.210938 310.929688 85.042969 306.0625 90.324219 C 298.335938 98.703125 298.007812 110.863281 298.21875 115.699219 C 298.558594 123.257812 302.457031 131.105469 304.179688 133.527344 C 304.371094 133.792969 304.308594 134.164062 304.042969 134.355469 C 303.9375 134.429688 303.816406 134.464844 303.699219 134.464844 " fill-opacity="1" fill-rule="nonzero"/><path fill="#2e2020" d="M 361.964844 121.007812 C 361.914062 121.007812 361.859375 121 361.800781 120.984375 C 361.488281 120.890625 361.308594 120.5625 361.398438 120.25 C 363.546875 112.863281 359.769531 98.5625 350.734375 89.050781 C 346.253906 84.335938 338.863281 79.210938 329.097656 81.5625 C 328.78125 81.636719 328.460938 81.445312 328.386719 81.125 C 328.308594 80.804688 328.503906 80.484375 328.820312 80.410156 C 339.136719 77.925781 346.894531 83.292969 351.589844 88.234375 C 360.035156 97.121094 365.050781 111.933594 362.535156 120.582031 C 362.460938 120.84375 362.222656 121.007812 361.964844 121.007812 " fill-opacity="1" fill-rule="nonzero"/><path fill="#2e2020" d="M 319.207031 131.285156 C 318.902344 129.628906 319.710938 128.089844 321.019531 127.851562 C 322.320312 127.609375 323.625 128.757812 323.929688 130.410156 C 324.234375 132.066406 323.421875 133.601562 322.117188 133.84375 C 320.8125 134.082031 319.511719 132.9375 319.207031 131.285156 " fill-opacity="1" fill-rule="evenodd"/><path fill="#2e2020" d="M 342.238281 126.433594 C 341.929688 124.777344 342.742188 123.242188 344.046875 123 C 345.351562 122.757812 346.652344 123.90625 346.960938 125.558594 C 347.265625 127.214844 346.453125 128.75 345.148438 128.992188 C 343.84375 129.230469 342.539062 128.085938 342.238281 126.433594 " fill-opacity="1" fill-rule="evenodd"/><path fill="#2e2020" d="M 336.609375 114.03125 C 336.445312 114.03125 336.28125 113.964844 336.164062 113.828125 C 335.949219 113.582031 335.972656 113.207031 336.21875 112.996094 C 337.773438 111.632812 342.167969 110.621094 345.257812 110.917969 C 345.585938 110.945312 345.824219 111.234375 345.792969 111.5625 C 345.757812 111.890625 345.46875 112.125 345.144531 112.097656 C 342.171875 111.8125 338.1875 112.84375 336.996094 113.886719 C 336.886719 113.984375 336.746094 114.03125 336.609375 114.03125 " fill-opacity="1" fill-rule="nonzero"/><path fill="#2e2020" d="M 314.597656 120.515625 C 314.460938 120.515625 314.320312 120.46875 314.207031 120.371094 C 313.960938 120.15625 313.9375 119.78125 314.152344 119.535156 C 316.640625 116.679688 320.210938 115.480469 323.964844 116.25 C 324.285156 116.316406 324.492188 116.625 324.425781 116.949219 C 324.363281 117.269531 324.050781 117.476562 323.726562 117.414062 C 321.777344 117.011719 318.054688 116.859375 315.042969 120.3125 C 314.925781 120.449219 314.761719 120.515625 314.597656 120.515625 " fill-opacity="1" fill-rule="nonzero"/><path fill="#2e2020" d="M 312.023438 148.492188 C 310.253906 148.492188 308.046875 146.769531 307.746094 146.527344 C 304.859375 144.210938 302.257812 139.136719 303.132812 135.554688 C 303.570312 133.757812 305.300781 133.128906 306.726562 133.316406 C 308.152344 133.503906 309.671875 134.558594 309.644531 136.441406 C 309.636719 136.765625 309.375 137.027344 309.050781 137.027344 C 309.046875 137.027344 309.042969 137.027344 309.039062 137.027344 C 308.714844 137.019531 308.453125 136.75 308.457031 136.421875 C 308.476562 135.261719 307.523438 134.621094 306.574219 134.496094 C 305.625 134.371094 304.546875 134.742188 304.28125 135.839844 C 303.597656 138.632812 305.601562 143.285156 308.484375 145.601562 C 309.734375 146.601562 311.824219 147.699219 312.527344 147.164062 C 312.789062 146.964844 313.160156 147.011719 313.359375 147.273438 C 313.554688 147.535156 313.507812 147.90625 313.25 148.105469 C 312.894531 148.378906 312.472656 148.492188 312.023438 148.492188 " fill-opacity="1" fill-rule="nonzero"/><path fill="#2e2020" d="M 310.546875 143.230469 C 310.359375 143.230469 310.175781 143.136719 310.0625 142.96875 C 309.386719 141.996094 308.660156 141.253906 307.890625 140.472656 C 307.429688 140 306.960938 139.523438 306.496094 138.988281 C 306.285156 138.742188 306.308594 138.367188 306.554688 138.152344 C 306.804688 137.933594 307.179688 137.964844 307.390625 138.210938 C 307.839844 138.726562 308.289062 139.1875 308.738281 139.640625 C 309.507812 140.421875 310.304688 141.234375 311.035156 142.296875 C 311.222656 142.566406 311.152344 142.933594 310.886719 143.121094 C 310.78125 143.191406 310.664062 143.230469 310.546875 143.230469 " fill-opacity="1" fill-rule="nonzero"/><path fill="#2e2020" d="M 332.226562 174.566406 C 332.136719 174.566406 332.046875 174.542969 331.960938 174.503906 C 331.667969 174.355469 331.550781 174 331.699219 173.707031 C 333.429688 170.230469 333.648438 166.496094 329.085938 159.535156 C 328.90625 159.261719 328.980469 158.894531 329.253906 158.714844 C 329.527344 158.53125 329.894531 158.609375 330.074219 158.886719 C 335.234375 166.753906 334.410156 170.914062 332.757812 174.234375 C 332.652344 174.445312 332.441406 174.566406 332.226562 174.566406 " fill-opacity="1" fill-rule="nonzero"/><path fill="#2e2020" d="M 334.914062 175.808594 C 333.582031 175.808594 333.023438 175.566406 332.011719 174.84375 C 331.746094 174.652344 331.683594 174.285156 331.875 174.011719 C 332.058594 173.746094 332.429688 173.683594 332.699219 173.875 C 333.527344 174.472656 333.851562 174.621094 334.914062 174.621094 C 335.242188 174.621094 335.507812 174.882812 335.507812 175.210938 C 335.507812 175.539062 335.242188 175.808594 334.914062 175.808594 " fill-opacity="1" fill-rule="nonzero"/><path fill="#2e2020" d="M 363.238281 154.5625 C 362.535156 154.5625 361.859375 154.421875 361.222656 154.148438 C 359.0625 153.214844 357.191406 150.652344 355.5 146.316406 C 355.378906 146.011719 355.527344 145.667969 355.832031 145.546875 C 356.136719 145.429688 356.480469 145.578125 356.601562 145.882812 C 358.171875 149.910156 359.835938 152.257812 361.6875 153.058594 C 362.792969 153.53125 363.984375 153.480469 365.4375 152.890625 C 365.742188 152.765625 366.085938 152.914062 366.207031 153.21875 C 366.328125 153.519531 366.183594 153.867188 365.882812 153.988281 C 364.941406 154.375 364.066406 154.5625 363.238281 154.5625 " fill-opacity="1" fill-rule="nonzero"/><path fill="#2e2020" d="M 367.28125 185.652344 C 367.1875 185.652344 367.089844 185.628906 367 185.578125 L 366.792969 185.464844 C 364.007812 183.941406 360.84375 182.214844 360.011719 178.59375 C 359.683594 177.160156 360.582031 175.929688 362.683594 174.9375 L 363.265625 174.660156 C 365.707031 173.488281 369.394531 171.722656 372.175781 172.734375 C 373.773438 173.320312 373.9375 174.367188 373.898438 174.941406 C 373.707031 177.429688 369.035156 180.582031 367.28125 180.933594 C 366.96875 181 366.652344 180.789062 366.585938 180.46875 C 366.523438 180.144531 366.730469 179.835938 367.050781 179.769531 C 368.527344 179.476562 372.585938 176.558594 372.714844 174.851562 C 372.726562 174.679688 372.761719 174.210938 371.773438 173.851562 C 369.457031 173.007812 366.039062 174.648438 363.773438 175.730469 L 363.183594 176.011719 C 360.882812 177.101562 361.09375 178.019531 361.164062 178.324219 C 361.878906 181.425781 364.667969 182.953125 367.363281 184.421875 L 367.566406 184.535156 C 367.851562 184.691406 367.957031 185.054688 367.800781 185.34375 C 367.695312 185.539062 367.492188 185.652344 367.28125 185.652344 " fill-opacity="1" fill-rule="nonzero"/><g clip-path="url(#008e794ad7)"><path fill="#2e2020" d="M 361.660156 176.445312 C 361.53125 176.445312 361.402344 176.417969 361.28125 176.359375 C 360.386719 175.953125 359.738281 173.824219 359.503906 172.929688 C 358.617188 169.601562 361.625 168.09375 362.613281 167.601562 C 366.917969 165.4375 370.210938 164.714844 372.390625 165.441406 C 373.816406 165.921875 374.175781 166.792969 374.21875 167.441406 C 374.382812 169.726562 370.910156 172.539062 369.835938 173.078125 C 369.546875 173.226562 369.1875 173.105469 369.042969 172.816406 C 368.894531 172.523438 369.011719 172.164062 369.304688 172.015625 C 370.441406 171.449219 373.140625 168.960938 373.039062 167.527344 C 373.027344 167.371094 372.992188 166.894531 372.015625 166.570312 C 370.164062 165.949219 367.101562 166.675781 363.144531 168.660156 C 360.945312 169.761719 360.199219 170.949219 360.648438 172.625 C 360.910156 173.625 361.410156 174.90625 361.714844 175.230469 C 361.949219 175.199219 362.207031 175.320312 362.320312 175.550781 C 362.464844 175.84375 362.347656 176.203125 362.054688 176.351562 C 361.929688 176.410156 361.796875 176.445312 361.660156 176.445312 " fill-opacity="1" fill-rule="nonzero"/></g><g clip-path="url(#f6330c96b4)"><path fill="#2e2020" d="M 360.875 169.929688 C 360.75 169.929688 360.625 169.890625 360.519531 169.808594 C 359.539062 169.070312 358.785156 167.554688 358.640625 166.027344 C 358.523438 164.804688 358.816406 163.738281 359.464844 163.027344 C 361.449219 160.835938 367.703125 158.835938 370.609375 159.457031 C 372.09375 159.777344 373.890625 161.292969 374.101562 162.960938 C 374.183594 163.605469 374.082031 164.8125 372.46875 165.621094 C 372.179688 165.765625 371.820312 165.648438 371.671875 165.355469 C 371.53125 165.0625 371.648438 164.703125 371.9375 164.558594 C 372.679688 164.183594 373.003906 163.710938 372.925781 163.109375 C 372.796875 162.085938 371.550781 160.875 370.359375 160.617188 C 367.863281 160.082031 362.050781 161.9375 360.339844 163.824219 C 359.921875 164.289062 359.734375 165.03125 359.816406 165.917969 C 359.933594 167.109375 360.511719 168.316406 361.230469 168.859375 C 361.492188 169.054688 361.546875 169.429688 361.347656 169.691406 C 361.234375 169.84375 361.054688 169.929688 360.875 169.929688 " fill-opacity="1" fill-rule="nonzero"/></g><path fill="#2e2020" d="M 360.304688 163.042969 C 360.210938 163.042969 360.125 163.019531 360.039062 162.980469 C 359.394531 162.65625 358.996094 162.066406 358.886719 161.277344 C 358.707031 159.941406 359.414062 158.289062 360.191406 157.589844 C 362.589844 155.425781 368.429688 153.527344 371.101562 155.28125 C 372.085938 155.933594 373.0625 157.328125 372.078125 160.28125 C 371.972656 160.59375 371.636719 160.761719 371.328125 160.660156 C 371.019531 160.554688 370.851562 160.21875 370.953125 159.90625 C 371.554688 158.109375 371.382812 156.886719 370.449219 156.277344 C 368.429688 154.949219 363.242188 156.433594 360.984375 158.472656 C 360.46875 158.9375 359.9375 160.222656 360.0625 161.117188 C 360.117188 161.511719 360.28125 161.773438 360.566406 161.914062 C 360.859375 162.0625 360.976562 162.421875 360.832031 162.714844 C 360.726562 162.921875 360.519531 163.042969 360.304688 163.042969 " fill-opacity="1" fill-rule="nonzero"/><g clip-path="url(#a8ffbb59bb)"><path fill="#2e2020" d="M 372.984375 82.316406 C 371.976562 82.316406 370.515625 81.8125 368.613281 80.8125 C 364.304688 78.542969 362.222656 76.394531 362.25 74.25 C 362.273438 72.460938 363.726562 70.878906 366.691406 69.410156 C 366.980469 69.269531 367.335938 69.386719 367.480469 69.679688 C 367.625 69.976562 367.503906 70.332031 367.210938 70.476562 C 364.71875 71.710938 363.449219 72.984375 363.433594 74.265625 C 363.414062 75.875 365.394531 77.773438 369.164062 79.757812 C 372.058594 81.285156 373.261719 81.230469 373.375 81.035156 C 373.464844 80.882812 373.527344 80.132812 370.703125 76.847656 C 370.550781 76.671875 370.425781 76.53125 370.347656 76.433594 C 369.632812 75.550781 368.953125 74.722656 367.980469 73.980469 C 367.722656 73.785156 367.671875 73.414062 367.867188 73.152344 C 368.066406 72.886719 368.441406 72.839844 368.699219 73.039062 C 369.78125 73.859375 370.503906 74.742188 371.261719 75.679688 C 371.339844 75.773438 371.457031 75.90625 371.597656 76.074219 C 373.757812 78.578125 375.058594 80.484375 374.398438 81.632812 C 374.136719 82.085938 373.664062 82.316406 372.984375 82.316406 " fill-opacity="1" fill-rule="nonzero"/></g><g clip-path="url(#3ea3941cf2)"><path fill="#2e2020" d="M 372.832031 87.910156 C 371.757812 87.910156 370.535156 87.308594 369.632812 86.863281 C 369.335938 86.714844 369.070312 86.585938 368.867188 86.503906 C 364.3125 84.707031 361.753906 82.738281 361.265625 80.648438 C 360.980469 79.449219 361.359375 78.261719 362.394531 77.105469 C 362.613281 76.863281 362.984375 76.84375 363.230469 77.0625 C 363.472656 77.28125 363.492188 77.65625 363.277344 77.902344 C 362.503906 78.757812 362.222656 79.570312 362.414062 80.375 C 362.6875 81.539062 364.105469 83.351562 369.300781 85.398438 C 369.53125 85.488281 369.824219 85.632812 370.15625 85.796875 C 371.132812 86.277344 372.773438 87.089844 373.402344 86.550781 C 373.429688 86.53125 373.480469 86.488281 373.488281 86.328125 C 373.53125 85.316406 371.835938 83.148438 371.15625 82.457031 C 370.925781 82.222656 370.925781 81.847656 371.160156 81.613281 C 371.390625 81.386719 371.765625 81.386719 371.996094 81.621094 C 372.023438 81.648438 374.75 84.535156 374.671875 86.382812 C 374.652344 86.824219 374.476562 87.195312 374.167969 87.457031 C 373.78125 87.785156 373.324219 87.910156 372.832031 87.910156 " fill-opacity="1" fill-rule="nonzero"/></g><g clip-path="url(#a8d24f43c8)"><path fill="#2e2020" d="M 372.398438 94.648438 C 368.917969 94.648438 364.578125 92.226562 362.925781 89.300781 C 361.890625 87.472656 361.945312 85.609375 363.078125 83.921875 C 363.265625 83.648438 363.632812 83.578125 363.902344 83.761719 C 364.171875 83.945312 364.242188 84.3125 364.0625 84.582031 C 363.183594 85.894531 363.148438 87.285156 363.953125 88.71875 C 365.585938 91.609375 369.9375 93.613281 372.71875 93.453125 C 372.933594 93.441406 373.019531 93.375 373.082031 93.175781 C 373.429688 92.035156 372.058594 89.066406 371.402344 88.570312 C 371.144531 88.371094 371.09375 88 371.289062 87.738281 C 371.488281 87.476562 371.859375 87.425781 372.121094 87.625 C 373.085938 88.359375 374.734375 91.820312 374.210938 93.523438 C 374.007812 94.195312 373.488281 94.601562 372.785156 94.640625 C 372.65625 94.648438 372.527344 94.648438 372.398438 94.648438 " fill-opacity="1" fill-rule="nonzero"/></g><path fill="#2e2020" d="M 371.726562 100 C 368.976562 100 364.136719 97.246094 362.847656 94.625 C 362.089844 93.082031 362.613281 91.71875 364.292969 90.890625 C 364.589844 90.746094 364.941406 90.867188 365.085938 91.160156 C 365.230469 91.453125 365.109375 91.808594 364.816406 91.953125 C 363.417969 92.644531 363.597656 93.464844 363.910156 94.097656 C 365.167969 96.65625 370.816406 99.472656 372.34375 98.710938 C 372.859375 98.457031 372.386719 97.355469 372.15625 96.894531 C 371.960938 96.492188 371.738281 96.101562 371.519531 95.714844 C 371.289062 95.308594 371.0625 94.90625 370.859375 94.496094 C 370.714844 94.203125 370.835938 93.847656 371.128906 93.703125 C 371.417969 93.558594 371.777344 93.675781 371.921875 93.972656 C 372.113281 94.363281 372.328125 94.742188 372.546875 95.125 C 372.78125 95.53125 373.011719 95.941406 373.21875 96.363281 C 374.335938 98.632812 373.480469 99.476562 372.871094 99.773438 C 372.558594 99.929688 372.167969 100 371.726562 100 " fill-opacity="1" fill-rule="nonzero"/><path fill="#2e2020" d="M 366.339844 155.347656 C 366.070312 155.347656 365.824219 155.15625 365.765625 154.878906 L 365.699219 154.570312 C 365.667969 154.410156 365.667969 154.410156 365.601562 154.269531 L 365.425781 153.875 C 365.296875 153.578125 365.433594 153.222656 365.730469 153.09375 C 366.03125 152.964844 366.378906 153.101562 366.511719 153.398438 L 366.679688 153.777344 C 366.789062 154.019531 366.804688 154.058594 366.859375 154.332031 L 366.921875 154.625 C 366.992188 154.949219 366.789062 155.265625 366.46875 155.332031 C 366.425781 155.339844 366.386719 155.347656 366.339844 155.347656 " fill-opacity="1" fill-rule="nonzero"/><path fill="#2e2020" d="M 365.859375 153.722656 C 365.75 153.722656 365.636719 153.695312 365.539062 153.628906 C 365.261719 153.453125 365.183594 153.085938 365.363281 152.808594 L 365.683594 152.308594 C 366.027344 151.777344 366.359375 151.273438 366.65625 150.742188 C 366.816406 150.457031 367.175781 150.355469 367.460938 150.515625 C 367.746094 150.675781 367.851562 151.039062 367.6875 151.324219 C 367.375 151.875 367.035156 152.40625 366.675781 152.957031 L 366.355469 153.453125 C 366.242188 153.628906 366.050781 153.722656 365.859375 153.722656 " fill-opacity="1" fill-rule="nonzero"/><path fill="#2e2020" d="M 367.515625 72.757812 C 367.191406 72.757812 366.925781 72.488281 366.925781 72.164062 L 366.925781 -0.0507812 C 366.925781 -0.375 367.191406 -0.640625 367.515625 -0.640625 C 367.84375 -0.640625 368.109375 -0.375 368.109375 -0.0507812 L 368.109375 72.164062 C 368.109375 72.488281 367.84375 72.757812 367.515625 72.757812 " fill-opacity="1" fill-rule="nonzero"/><path fill="#2e2020" d="M 367.515625 154.992188 C 367.191406 154.992188 366.925781 154.726562 366.925781 154.398438 L 366.925781 99.019531 C 366.925781 98.691406 367.191406 98.425781 367.515625 98.425781 C 367.84375 98.425781 368.109375 98.691406 368.109375 99.019531 L 368.109375 154.398438 C 368.109375 154.726562 367.84375 154.992188 367.515625 154.992188 " fill-opacity="1" fill-rule="nonzero"/><path fill="#2e2020" d="M 367.515625 197.554688 C 367.191406 197.554688 366.925781 197.292969 366.925781 196.964844 L 366.925781 180.917969 C 366.925781 180.589844 367.191406 180.320312 367.515625 180.320312 C 367.84375 180.320312 368.109375 180.589844 368.109375 180.917969 L 368.109375 196.964844 C 368.109375 197.292969 367.84375 197.554688 367.515625 197.554688 " fill-opacity="1" fill-rule="nonzero"/><path fill="#2e2020" d="M 367.515625 302.195312 C 367.191406 302.195312 366.925781 301.929688 366.925781 301.601562 L 366.925781 224.023438 C 366.925781 223.695312 367.191406 223.429688 367.515625 223.429688 C 367.84375 223.429688 368.109375 223.695312 368.109375 224.023438 L 368.109375 301.601562 C 368.109375 301.929688 367.84375 302.195312 367.515625 302.195312 " fill-opacity="1" fill-rule="nonzero"/><path fill="#2e2020" d="M 367.515625 374.570312 C 367.191406 374.570312 366.925781 374.304688 366.925781 373.976562 L 366.925781 326.609375 C 366.925781 326.28125 367.191406 326.011719 367.515625 326.011719 C 367.84375 326.011719 368.109375 326.28125 368.109375 326.609375 L 368.109375 373.976562 C 368.109375 374.304688 367.84375 374.570312 367.515625 374.570312 " fill-opacity="1" fill-rule="nonzero"/><path fill="#2e2020" d="M 358.527344 131.144531 C 358.492188 131.144531 358.460938 131.140625 358.425781 131.136719 C 358.105469 131.082031 357.886719 130.777344 357.941406 130.453125 C 358.191406 128.945312 359.355469 125.816406 360.25 124.566406 C 360.441406 124.296875 360.808594 124.234375 361.078125 124.425781 C 361.34375 124.617188 361.402344 124.988281 361.214844 125.257812 C 360.417969 126.371094 359.335938 129.285156 359.109375 130.648438 C 359.0625 130.941406 358.808594 131.144531 358.527344 131.144531 " fill-opacity="1" fill-rule="nonzero"/><path fill="#2e2020" d="M 334.105469 113.042969 C 331.601562 113.042969 328.894531 112.53125 326.363281 111.507812 C 320.894531 109.300781 317.007812 105.066406 315.414062 99.59375 C 315.320312 99.277344 315.503906 98.949219 315.816406 98.859375 C 316.128906 98.769531 316.457031 98.949219 316.550781 99.261719 C 318.039062 104.378906 321.679688 108.335938 326.804688 110.40625 C 331.433594 112.273438 336.839844 112.328125 339.957031 110.53125 C 340.246094 110.367188 340.605469 110.46875 340.765625 110.75 C 340.929688 111.035156 340.832031 111.398438 340.546875 111.5625 C 338.828125 112.550781 336.5625 113.042969 334.105469 113.042969 " fill-opacity="1" fill-rule="nonzero"/><path fill="#2e2020" d="M 345.257812 110.164062 C 340.3125 110.164062 334.222656 108.929688 328.949219 102.609375 C 328.738281 102.359375 328.773438 101.984375 329.019531 101.773438 C 329.273438 101.5625 329.644531 101.597656 329.855469 101.847656 C 336.6875 110.03125 344.746094 109.210938 350.078125 108.667969 C 350.765625 108.597656 351.402344 108.53125 351.976562 108.496094 C 352.304688 108.472656 352.585938 108.71875 352.609375 109.050781 C 352.632812 109.375 352.382812 109.660156 352.058594 109.679688 C 351.492188 109.71875 350.871094 109.78125 350.195312 109.847656 C 348.777344 109.996094 347.09375 110.164062 345.257812 110.164062 " fill-opacity="1" fill-rule="nonzero"/><path fill="#2e2020" d="M 355.144531 121.910156 C 354.871094 121.910156 354.625 121.710938 354.566406 121.433594 C 353.785156 117.578125 352.46875 116.097656 350.484375 113.847656 C 349.953125 113.246094 349.378906 112.597656 348.761719 111.84375 C 348.554688 111.589844 348.589844 111.21875 348.84375 111.007812 C 349.089844 110.800781 349.464844 110.835938 349.675781 111.089844 C 350.285156 111.832031 350.847656 112.46875 351.371094 113.058594 C 353.410156 115.367188 354.882812 117.03125 355.726562 121.195312 C 355.789062 121.515625 355.582031 121.828125 355.265625 121.894531 C 355.222656 121.902344 355.183594 121.910156 355.144531 121.910156 " fill-opacity="1" fill-rule="nonzero"/><path fill="#2e2020" d="M 306.125 121.964844 C 305.972656 121.964844 305.824219 121.90625 305.707031 121.789062 C 305.476562 121.558594 305.476562 121.183594 305.707031 120.949219 C 311 115.640625 313.253906 109.414062 313.253906 100.125 C 313.253906 99.796875 313.519531 99.535156 313.847656 99.535156 C 314.175781 99.535156 314.4375 99.796875 314.4375 100.125 C 314.4375 109.757812 312.078125 116.238281 306.542969 121.789062 C 306.425781 121.90625 306.277344 121.964844 306.125 121.964844 " fill-opacity="1" fill-rule="nonzero"/><path fill="#2e2020" d="M 310.207031 133.46875 C 310.054688 133.46875 309.902344 133.410156 309.789062 133.296875 C 306.988281 130.484375 306.964844 125.339844 308.703125 122.289062 C 308.863281 122.003906 309.226562 121.910156 309.507812 122.070312 C 309.792969 122.234375 309.890625 122.59375 309.726562 122.882812 C 308.210938 125.546875 308.207031 130.03125 310.625 132.457031 C 310.855469 132.6875 310.855469 133.066406 310.625 133.296875 C 310.511719 133.410156 310.359375 133.46875 310.207031 133.46875 " fill-opacity="1" fill-rule="nonzero"/><path fill="#2e2020" d="M 355.4375 126.277344 C 355.285156 126.277344 355.132812 126.222656 355.015625 126.105469 C 354.789062 125.871094 354.789062 125.496094 355.019531 125.265625 C 356.414062 123.863281 356.421875 122.230469 356.28125 120.078125 C 356.257812 119.753906 356.507812 119.472656 356.832031 119.449219 C 357.15625 119.433594 357.4375 119.675781 357.460938 120.003906 C 357.613281 122.308594 357.601562 124.355469 355.855469 126.105469 C 355.738281 126.222656 355.589844 126.277344 355.4375 126.277344 " fill-opacity="1" fill-rule="nonzero"/><path fill="#2e2020" d="M 359.1875 136.347656 C 358.921875 136.347656 358.679688 136.167969 358.613281 135.898438 C 358.535156 135.578125 358.726562 135.253906 359.042969 135.175781 C 361.691406 134.511719 363.300781 131.378906 363.71875 128.566406 C 364.183594 125.421875 363.28125 122.664062 361.417969 121.546875 C 360.800781 121.171875 360.253906 121.183594 359.699219 121.574219 C 358.371094 122.515625 357.601562 125.199219 357.78125 126.121094 C 357.84375 126.445312 357.636719 126.757812 357.320312 126.820312 C 356.996094 126.882812 356.683594 126.675781 356.621094 126.355469 C 356.34375 124.953125 357.304688 121.816406 359.015625 120.605469 C 359.945312 119.945312 361.019531 119.917969 362.027344 120.527344 C 364.335938 121.917969 365.4375 125.066406 364.890625 128.738281 C 364.308594 132.648438 362.128906 135.628906 359.328125 136.328125 C 359.28125 136.339844 359.234375 136.347656 359.1875 136.347656 " fill-opacity="1" fill-rule="nonzero"/><path fill="#2e2020" d="M 349.097656 229.214844 L 349.109375 229.214844 Z M 349.613281 229.757812 C 349.484375 229.757812 349.347656 229.773438 349.214844 229.800781 C 347.507812 230.136719 346.328125 231.054688 345.886719 232.378906 C 345.433594 233.757812 345.820312 235.40625 346.882812 236.582031 C 347.535156 237.308594 348.992188 238.4375 351.414062 237.894531 C 352.984375 237.539062 353.292969 235.511719 352.902344 233.660156 C 352.488281 231.6875 351.222656 229.757812 349.613281 229.757812 Z M 350.199219 239.222656 C 348.566406 239.222656 347.089844 238.582031 346.003906 237.378906 C 344.664062 235.890625 344.175781 233.785156 344.761719 232.007812 C 345.339844 230.253906 346.839844 229.058594 348.984375 228.632812 C 351.550781 228.128906 353.480469 230.65625 354.0625 233.417969 C 354.570312 235.839844 354.03125 238.519531 351.675781 239.050781 C 351.175781 239.164062 350.679688 239.222656 350.199219 239.222656 " fill-opacity="1" fill-rule="nonzero"/><path fill="#2e2020" d="M 337.125 141.039062 C 337.054688 141.039062 336.984375 141.054688 336.921875 141.082031 C 335.871094 141.5625 334.890625 144.707031 335.355469 146.105469 C 335.800781 147.445312 337.445312 149.714844 338.363281 149.714844 C 338.371094 149.714844 338.375 149.714844 338.382812 149.714844 C 338.839844 149.699219 339.117188 148.78125 339.210938 148.386719 C 339.789062 146.082031 339.484375 144.226562 338.160156 141.984375 C 337.789062 141.355469 337.441406 141.039062 337.125 141.039062 Z M 338.367188 150.902344 C 336.523438 150.902344 334.644531 147.714844 334.234375 146.480469 C 333.628906 144.648438 334.71875 140.789062 336.429688 140.003906 C 337 139.742188 338.113281 139.574219 339.179688 141.378906 C 340.660156 143.886719 341.011719 146.066406 340.359375 148.675781 C 340 150.117188 339.351562 150.863281 338.429688 150.902344 C 338.410156 150.902344 338.386719 150.902344 338.367188 150.902344 " fill-opacity="1" fill-rule="nonzero"/><path fill="#2e2020" d="M 324.632812 181.304688 C 324.417969 181.304688 324.207031 181.183594 324.105469 180.976562 C 323.957031 180.683594 324.078125 180.324219 324.371094 180.179688 C 327.371094 178.675781 329.796875 177.265625 331.40625 174.035156 C 331.550781 173.742188 331.910156 173.625 332.199219 173.773438 C 332.492188 173.917969 332.609375 174.273438 332.464844 174.566406 C 330.695312 178.117188 327.992188 179.691406 324.898438 181.238281 C 324.816406 181.285156 324.722656 181.304688 324.632812 181.304688 " fill-opacity="1" fill-rule="nonzero"/><path fill="#2e2020" d="M 324.632812 265.21875 C 324.550781 265.21875 324.46875 265.203125 324.386719 265.164062 C 320.078125 263.171875 313.085938 253.769531 309.5 246.582031 C 309.351562 246.289062 309.472656 245.929688 309.765625 245.785156 C 310.058594 245.636719 310.414062 245.757812 310.558594 246.050781 C 314.425781 253.8125 321.253906 262.40625 324.882812 264.085938 C 325.179688 264.222656 325.308594 264.574219 325.171875 264.875 C 325.070312 265.089844 324.859375 265.21875 324.632812 265.21875 " fill-opacity="1" fill-rule="nonzero"/><path fill="#2e2020" d="M 351.074219 177.761719 C 350.757812 177.761719 350.496094 177.511719 350.484375 177.195312 C 350.46875 176.867188 350.722656 176.589844 351.050781 176.574219 C 353.785156 176.464844 358.445312 173.636719 359.292969 171.007812 C 359.390625 170.695312 359.722656 170.523438 360.039062 170.625 C 360.347656 170.722656 360.519531 171.0625 360.417969 171.371094 C 359.410156 174.507812 354.3125 177.628906 351.097656 177.761719 C 351.089844 177.761719 351.082031 177.761719 351.074219 177.761719 " fill-opacity="1" fill-rule="nonzero"/></svg>
